# xmcd
#
# Track frame offsets:
#	150
#	16432
#	29380
#	41542
#	57615
#	77322
#	96412
#	114747
#	126702
#	141537
#	154452
#	166302
#	177715
#	192880
#	205210
#	216037
#
# Disc length: 3110
#
# Revision: 3
# Processed by: cddbd v1.5.1PL0 Copyright (c) Steve Scherf et al.
# Submitted via: ExactAudioCopy v0.90a11
# Normalized: r1:DSETVAR1,TDELIM( - ),TSWAP
#
DISCID=f50c2410
DTITLE=Various Artist - Country Chartbusters
DYEAR=1900
DGENRE=
TTITLE0=The Charlie Daniels Band - The Devil Went Down To Georgia
TTITLE1=Lynn Anderson - Rose Garden
TTITLE2=Tammy Wynette - Stand By Your Man
TTITLE3=Willie Nelson - Always On My Mind
TTITLE4=Marty Robbins - El Paso
TTITLE5=Kris Kristofferson - Me And Bobby McGee
TTITLE6=Dolly Parton - The River Unbroken
TTITLE7=Johnny Cash - Ring Of Fire
TTITLE8=Rosanne Cash - Seven Year Ache
TTITLE9=Johnny Horton - North To Alaska
TTITLE10=Johnny Paycheck - Take This Job And Shove It
TTITLE11=Earl Scruggs - Banjo Man
TTITLE12=Merle Haggard - Kern River
TTITLE13=Charlie Rich - The Most Beautiful Girl In The World
TTITLE14=Tanya Tucker - Would You Lay With Me
TTITLE15=Ricky Skaggs - Country Boy
EXTD=Columbia COL 477120-2
EXTT0=
EXTT1=
EXTT2=
EXTT3=
EXTT4=
EXTT5=
EXTT6=
EXTT7=
EXTT8=
EXTT9=
EXTT10=
EXTT11=
EXTT12=
EXTT13=
EXTT14=
EXTT15=
PLAYORDER=
